{"title":"Lost Season 1 Episode 1 PROPER s01e01 1x01 *$HR1MP!*","uid":5120344,"size":366903296,"categoryP":"video","categoryS":"tv_shows","magnet":"?xt=urn:btih:97b2d8ca398b3e163119530447aac4d064708247&amp;dn=Lost+Season+1+Episode+1+PROPER+s01e01+1x01+%2A%24HR1MP%21%2A&amp;tr=udp%3A%2F%2Ftracker.openbittorrent.com%3A80&amp;tr=udp%3A%2F%2Fopen.demonii.com%3A1337&amp;tr=udp%3A%2F%2Ftracker.coppersurfer.tk%3A6969&amp;tr=udp%3A%2F%2Fexodus.desync.com%3A6969","seeders":8,"leechers":0,"uploader":"H0bbes99","files":1,"time":1255304060,"description":"This is a single show torrent, by request of the commenters on this other torrent here: http://thepiratebay.se/torrent/5026894/\n\nEnjoy!\n\nMediainfo:\nGeneral\nComplete name                    : 01 - Pilot (1).avi\nFormat                           : AVI\nFormat/Info                      : Audio Video Interleave\nFile size                        : 350 MiB\nDuration                         : 42mn 40s\nOverall bit rate                 : 1 146 Kbps\nWriting application              : HUH?\n\nVideo\nID                               : 0\nFormat                           : MPEG-4 Visual\nFormat profile                   : AdvancedSimple@L5\nFormat settings, BVOP            : No\nFormat settings, QPel            : No\nFormat settings, GMC             : No warppoints\nFormat settings, Matrix          : Default (H.263)\nCodec ID                         : XVID\nCodec ID/Hint                    : XviD\nDuration                         : 42mn 40s\nBit rate                         : 976 Kbps\nWidth                            : 624 pixels\nHeight                           : 352 pixels\nDisplay aspect ratio             : 16:9\nFrame rate                       : 23.976 fps\nResolution                       : 24 bits\nColorimetry                      : 4:2:0\nScan type                        : Progressive\nBits/(Pixel*Frame)               : 0.185\nStream size                      : 298 MiB (85%)\nWriting library                  : XviD 1.0.0 (UTC 2004-05-09)\n\nAudio\nID                               : 1\nFormat                           : MPEG Audio\nFormat version                   : Version 1\nFormat profile                   : Layer 3\nCodec ID                         : 55\nCodec ID/Hint                    : MP3\nDuration                         : 42mn 40s\nBit rate mode                    : Variable\nBit rate                         : 157 Kbps\nNominal bit rate                 : 168 Kbps\nChannel(s)                       : 2 channels\nSampling rate                    : 48.0 KHz\nResolution                       : 16 bits\nStream size                      : 48.0 MiB (14%)\nAlignment                        : Aligned on interleaves\nInterleave, duration             : 24 ms (0.58 video frame)\nInterleave, preload duration     : 478 ms\nWriting library                  : LAME3.92 \nEncoding settings                : -m j -V 4 -q 2 -lowpass 18.7 --abr 168\n\n","torrent":{"xt":"urn:btih:97b2d8ca398b3e163119530447aac4d064708247","amp;dn":"Lost+Season+1+Episode+1+PROPER+s01e01+1x01+%2A%24HR1MP%21%2A","amp;tr":["udp%3A%2F%2Ftracker.openbittorrent.com%3A80","udp%3A%2F%2Fopen.demonii.com%3A1337","udp%3A%2F%2Ftracker.coppersurfer.tk%3A6969","udp%3A%2F%2Fexodus.desync.com%3A6969"],"infoHash":"97b2d8ca398b3e163119530447aac4d064708247","infoHashBuffer":{"type":"Buffer","data":[151,178,216,202,57,139,62,22,49,25,83,4,71,170,196,208,100,112,130,71]},"announce":[],"urlList":[]}}